# xmcd
#
# Track frame offsets:
#	150
#	22357
#	40922
#	57019
#	74298
#	94814
#	113207
#
# Disc length: 1749 seconds
#
# Revision: 0
# Processed by: cddbd v1.5.2PL0 Copyright (c) Steve Scherf et al.
# Submitted via: EZCDAudioConverter 3.0.3.2
#
DISCID=5e06d307
DTITLE=Paula Fernandes - Encontros pelo caminho
DYEAR=2014
DGENRE=Sertanejo
TTITLE0=feat Almir Sater - Jeito de Mato
TTITLE1=feat. Sergio Reis e Renata T. Tristeza do Jeca
TTITLE2=feat. Leonardo - India
TTITLE3=feat Marcus Viana - Quando a chuva Passar
TTITLE4=feat. Tania Mara - Romania
TTITLE5=feat. Eduardo Costa - Meu grito de amor
TTITLE6=feat. Mickael Carreira - Eu sem voce
EXTD=
EXTT0=
EXTT1=
EXTT2=
EXTT3=
EXTT4=
EXTT5=
EXTT6=
PLAYORDER=
